<svg xmlns="http://www.w3.org/2000/svg" viewBox="0 0 20 20" width="16" height="16"><path d="M10 1a9 9 0 100 18 9 9 0 000-18zM2.07 9H5.1c.07-1.52.3-2.93.67-4.14A8.03 8.03 0 002.07 9zm7.18-7.93C8.42 2.14 7.68 4.2 7.52 6.5h4.96c-.16-2.3-.9-4.36-1.73-5.43a7.6 7.6 0 00-1.5 0zM7.52 9c.08 1.76.5 3.38 1.1 4.62.37.76.76 1.33 1.13 1.7.15.14.22.18.25.2.03-.02.1-.06.25-.2.37-.37.76-.94 1.13-1.7.6-1.24 1.02-2.86 1.1-4.62H7.52zm5.38-2.5c-.16-2.3-.9-4.36-1.73-5.43a7.6 7.6 0 011.03.15c1.64.66 3 1.82 3.87 3.28-.77.87-1.76 1.54-2.87 1.97-.09.02-.2.03-.3.03zm-5.68-5.28c-.83 1.07-1.57 3.13-1.73 5.43h-.07c-1.01-.4-1.92-1-2.7-1.76a8.02 8.02 0 014.5-3.67zM5.1 11H2.07a8.03 8.03 0 003.7 4.14c-.37-1.21-.6-2.62-.67-4.14zm2.42 0c.16 2.3.9 4.36 1.73 5.43a7.6 7.6 0 01-1.03-.15 8.02 8.02 0 01-3.87-3.28c.77-.87 1.76-1.54 2.87-1.97.09-.02.2-.03.3-.03zm7.38 0c-.07 1.52-.3 2.93-.67 4.14A8.03 8.03 0 0017.93 11h-3.03z"/></svg>